<svg width="150" height="150" viewBox="0 0 150 150" fill="none" xmlns="http://www.w3.org/2000/svg">
<mask id="mask0_375_8141" style="mask-type:luminance" maskUnits="userSpaceOnUse" x="16" y="65" width="118" height="20">
<path d="M134 65H16V85H134V65Z" fill="white"/>
</mask>
<g mask="url(#mask0_375_8141)">
<path d="M81.8545 65V84.9932H61.8125V65H81.8545ZM65.8614 68.5684V71.5195H70.0625V81.3623H73.6377V71.5195H77.8311V68.5684H65.8614Z" fill="white"/>
<path d="M58.8076 65V84.9932H38.7656V65H58.8076ZM41.4726 81.3623H44.9716L45.8456 79.2891H51.7158L52.5908 81.3623H56.0898L50.6923 68.5664H46.872L41.4726 81.3623ZM50.4687 76.6064H47.0908L48.7802 72.6035L50.4687 76.6064Z" fill="white"/>
<path d="M35.7608 65V84.9932H15.7188V65H35.7608ZM19.9736 81.3623H25.0185C28.5955 81.3623 31.5058 78.4912 31.5058 74.9639C31.5055 71.4368 28.5953 68.5684 25.0185 68.5684H19.9736V81.3623ZM24.417 71.623C26.517 71.6232 27.8202 72.9037 27.8204 74.9639C27.8204 77.057 26.534 78.3076 24.3818 78.3076H23.5224V71.623H24.417Z" fill="white"/>
<path d="M83.9729 65.1966V66.3003H83.7433V65.1966H83.3125V65H84.4037V65.1966H83.9729Z" fill="white"/>
<path d="M85.8872 66.3003H85.6661V65.3067H85.6597L85.3132 66.3003H85.1356L84.7891 65.3067H84.7828V66.3003H84.5703V65H84.9059L85.2244 65.9612H85.2307L85.5492 65H85.8849V66.3003H85.8872Z" fill="white"/>
<path d="M90.4863 70.6727H93.4226V71.7073H90.4863V74.0142H89.0312V68.2168H93.5766V69.2903H90.4863V70.6727Z" fill="white"/>
<path d="M95.3726 70.3763H95.4076C95.6567 69.9141 96.1024 69.6074 96.78 69.6074C96.8797 69.6074 96.984 69.6203 97.0533 69.6398V70.8364C96.9467 70.8234 96.748 70.804 96.5681 70.804C95.9162 70.804 95.4311 71.0632 95.4311 71.9034V74.0159H94.0781V69.7089H95.3749L95.3726 70.3763Z" fill="white"/>
<path d="M101.733 72.7243C101.571 73.3291 100.941 74.1153 99.4593 74.1153C98.0106 74.1153 97.125 73.2535 97.125 71.8689C97.125 70.4735 97.9894 69.6074 99.4553 69.6074C100.925 69.6074 101.887 70.4779 101.777 72.1259H98.5112C98.5221 72.8063 98.8922 73.247 99.4593 73.247C100.048 73.247 100.274 72.9057 100.347 72.6357L101.733 72.7243ZM98.5239 71.344H100.393C100.361 70.8429 100.033 70.4541 99.4575 70.4541C98.8836 70.4541 98.5565 70.8429 98.5239 71.344Z" fill="white"/>
<path d="M103.606 68.1348V69.1435H102.25V68.1348H103.606ZM103.606 69.7095V74.0144H102.25V69.7095H103.606Z" fill="white"/>
<path d="M108.721 73.679C108.721 75.1262 107.702 75.6101 106.405 75.6101C105.293 75.6101 104.398 75.2083 104.116 74.1801L105.462 74.0613C105.601 74.4955 105.909 74.6791 106.405 74.6791C106.976 74.6791 107.368 74.4005 107.368 73.6509V73.2362H107.333C107.067 73.5969 106.63 73.7891 105.997 73.7891C104.917 73.7891 104.094 72.9921 104.094 71.6939C104.094 70.4044 104.917 69.6074 106.03 69.6074C106.589 69.6074 107.102 69.7694 107.392 70.2359H107.427V69.7089H108.723L108.721 73.679ZM107.435 71.6939C107.435 71.0006 107.045 70.5729 106.456 70.5729C105.859 70.5729 105.473 71.0027 105.473 71.6939C105.473 72.4002 105.859 72.8366 106.456 72.8366C107.045 72.8366 107.435 72.4002 107.435 71.6939Z" fill="white"/>
<path d="M110.707 70.2862C111.001 69.9039 111.449 69.6058 112.12 69.6058C112.982 69.6058 113.675 70.0961 113.675 71.1869V74.0122H112.321V71.5023C112.321 70.8694 112.045 70.6361 111.553 70.6361C111.098 70.6361 110.674 71.0055 110.674 71.7183V74.0144H109.32V68.1348H110.674V70.2862H110.707Z" fill="white"/>
<path d="M116.888 73.0516V74.0107C116.721 74.0647 116.361 74.1122 116.024 74.1122C115.056 74.1122 114.636 73.8681 114.636 72.9717V70.5417H113.93V69.7079H114.636V68.5156H115.989V69.7079H116.91V70.5417H115.989V72.6952C115.989 73.0344 116.13 73.0992 116.453 73.0992C116.643 73.0992 116.795 73.0754 116.888 73.0516Z" fill="white"/>
<path d="M93.0045 81.3517C92.4998 81.7492 91.868 81.9673 91.1903 81.9673C89.9473 81.9673 88.7891 81.423 88.7891 80.2545C88.7891 79.479 89.2239 79.0189 89.9995 78.6625L90.2028 78.5697C89.7005 78.0232 89.5641 77.6927 89.5641 77.3125C89.5641 76.5198 90.35 75.9258 91.4458 75.9258C92.541 75.9258 93.3269 76.5198 93.3269 77.3125C93.3269 77.913 92.8658 78.2478 92.2965 78.5459L91.9436 78.7317L92.8704 79.6453C92.9529 79.384 92.9936 79.1053 92.9936 78.8245H94.1438C94.1438 79.4682 93.9943 80.032 93.7365 80.4964L95.1113 81.8529H93.5154L93.0045 81.3517ZM91.1903 81.0018C91.6211 81.0018 91.978 80.8549 92.2575 80.613L90.8999 79.2717L90.8197 79.3127C90.3718 79.5481 90.1289 79.8289 90.1289 80.2091C90.1272 80.6821 90.519 81.0018 91.1903 81.0018ZM90.8197 77.3579C90.8197 77.5653 90.9543 77.7445 91.2768 78.0729L91.4475 77.9951C91.8399 77.8158 92.065 77.6517 92.065 77.3579C92.065 77.0922 91.8657 76.8006 91.4435 76.8006C91.0191 76.8006 90.8197 77.0922 90.8197 77.3579Z" fill="white"/>
<path d="M98.5852 80.552L98.1327 81.8502H96.6016L98.8212 76.0527H100.757L102.977 81.8502H101.422L100.965 80.552H98.5852ZM99.7847 77.2061H99.7497L98.9358 79.5454H100.61L99.7847 77.2061Z" fill="white"/>
<path d="M104.602 78.1258C104.888 77.7434 105.344 77.4453 106.042 77.4453C106.934 77.4453 107.627 77.9357 107.627 79.0265V81.8518H106.274V79.3397C106.274 78.7068 105.996 78.4735 105.505 78.4735C105.044 78.4735 104.626 78.8062 104.626 79.5168V81.8496H103.273V77.5469H104.569V78.1236L104.602 78.1258Z" fill="white"/>
<path d="M112.597 80.9268V81.8534C112.485 81.8858 112.266 81.9161 112.008 81.9161C111.443 81.9161 111.116 81.7736 110.965 81.4214H110.93C110.651 81.767 110.129 81.955 109.57 81.955C108.726 81.955 108.016 81.4862 108.016 80.6849C108.016 79.7626 108.654 79.4191 109.798 79.2744C110.664 79.1621 110.884 79.0476 110.884 78.797C110.884 78.5033 110.659 78.3261 110.235 78.3261C109.86 78.3261 109.562 78.527 109.44 78.9223L108.18 78.7754C108.373 77.9373 109.161 77.4492 110.254 77.4492C111.612 77.4492 112.238 78.0108 112.238 78.8834V80.7065C112.238 80.9182 112.307 80.9592 112.433 80.9592C112.48 80.9549 112.552 80.942 112.597 80.9268ZM110.884 79.782C110.748 79.8792 110.443 79.9354 110.07 79.9915C109.679 80.0585 109.397 80.2464 109.397 80.6006C109.397 80.9117 109.616 81.1082 109.954 81.1082C110.352 81.1082 110.887 80.8448 110.887 80.1881V79.782H110.884Z" fill="white"/>
<path d="M114.276 75.9727V81.8523H112.922V75.9727H114.276Z" fill="white"/>
<path d="M117.889 81.8496C117.357 83.2688 116.759 83.4458 115.936 83.4458C115.611 83.4458 115.312 83.4264 115.124 83.3962V82.3572C115.265 82.3832 115.451 82.4069 115.698 82.4069C116.098 82.4069 116.252 82.2989 116.399 81.949L116.449 81.8258L114.641 77.5469H116.114L117.129 80.3333H117.163L118.06 77.5469H119.511L117.889 81.8496Z" fill="white"/>
<path d="M122.521 80.8916V81.8507C122.353 81.9047 121.994 81.9522 121.656 81.9522C120.689 81.9522 120.268 81.7081 120.268 80.8117V78.3795H119.562V77.5458H120.268V76.3535H121.622V77.5458H122.542V78.3795H121.622V80.5331C121.622 80.8722 121.763 80.937 122.085 80.937C122.275 80.9392 122.427 80.9154 122.521 80.8916Z" fill="white"/>
<path d="M124.378 75.9727V76.9814H123.023V75.9727H124.378ZM124.378 77.5452V81.8501H123.023V77.5452H124.378Z" fill="white"/>
<path d="M128.076 80.2214L129.453 80.3553C129.253 81.1307 128.641 81.9515 127.177 81.9515C125.724 81.9515 124.852 81.094 124.852 79.7008C124.852 78.3054 125.724 77.4414 127.177 77.4414C128.641 77.4414 129.219 78.2774 129.394 78.8671L128.058 79.1047C127.954 78.7655 127.723 78.3832 127.175 78.3832C126.603 78.3832 126.231 78.7979 126.231 79.6987C126.231 80.5994 126.603 81.0098 127.175 81.0098C127.74 81.0141 127.976 80.6253 128.076 80.2214Z" fill="white"/>
<path d="M132.627 78.8563C132.549 78.4739 132.235 78.2622 131.822 78.2622C131.434 78.2622 131.153 78.4199 131.153 78.7137C131.153 78.9923 131.449 79.0766 131.904 79.1479L132.376 79.217C133.203 79.3466 134.013 79.5777 134.013 80.5605C134.013 81.5282 133.08 81.9515 131.854 81.9515C130.657 81.9515 129.793 81.4612 129.641 80.5951L130.914 80.4503C131.005 80.9104 131.347 81.1351 131.867 81.1351C132.333 81.1351 132.631 80.9407 132.631 80.6188C132.631 80.3553 132.322 80.2322 131.83 80.1566L131.315 80.0788C130.579 79.9687 129.799 79.7159 129.799 78.7785C129.799 77.9123 130.748 77.4414 131.811 77.4414C132.896 77.4414 133.725 77.9123 133.876 78.7159L132.627 78.8563Z" fill="white"/>
</g>
</svg>
