<svg width="150" height="150" viewBox="0 0 150 150" fill="none" xmlns="http://www.w3.org/2000/svg">
<path d="M70.8552 71.7888H61.9823V64.203H56.3594V84.7981H61.9837V76.5478H70.8566V84.7981H76.4695V64.203H70.8552V71.7888ZM84.5643 72.0859C85.0347 69.3054 86.5679 67.8524 89.059 67.8524C91.5758 67.8524 93.286 69.5658 93.3681 72.0859H84.5643ZM89.0895 63.6604C82.9018 63.6604 78.7507 67.9379 78.7507 74.3544C78.7507 81.0288 82.8532 85.2695 89.2679 85.2695C94.3923 85.2695 97.9052 82.9161 99.2232 78.4604H93.1534C92.6034 80.0883 91.3192 80.9041 89.3891 80.9041C86.4877 80.9041 84.7446 79.1845 84.5977 76.191H99.2232C99.2232 75.4683 99.2657 75.2137 99.2657 74.8688C99.2657 67.9379 95.3378 63.6604 89.0895 63.6604ZM108.826 64.0239C106.835 64.4194 101.731 65.9565 101.731 73.7549V84.7947H107.421V75.6775C107.421 72.3009 107.889 70.7155 109.294 69.6928C110.153 69.0031 111.4 68.6214 112.844 68.6214C113.442 68.6214 113.699 68.6663 114.385 68.791V64.118C114.385 64.118 112.116 63.3805 108.826 64.0224M125.636 80.9796C122.639 80.9796 120.889 78.5435 120.889 74.4776C120.889 70.3697 122.602 67.9742 125.636 67.9742C128.624 67.9742 130.336 70.3272 130.336 74.4351C130.336 78.5908 128.624 80.9796 125.636 80.9796ZM125.636 63.6523C119.258 63.6551 115.155 67.8887 115.155 74.4771C115.155 81.0212 119.258 85.2624 125.636 85.2624C131.953 85.2624 136.063 81.0216 136.063 74.4771C136.063 67.8877 131.953 63.6523 125.636 63.6523Z" fill="white"/>
<path d="M40.95 61.6713L32.1562 55.1641V73.6975L40.95 67.5939V61.6713ZM40.95 88.1746V75.4434L32.1562 81.7748L40.95 88.1746Z" fill="white"/>
<path d="M16.7969 87.432L25.5954 93.8327V67.3313L16.7969 60.8203V87.432Z" fill="white"/>
</svg>
