<svg width="150" height="150" viewBox="0 0 150 150" fill="none" xmlns="http://www.w3.org/2000/svg">
<mask id="mask0_375_8233" style="mask-type:luminance" maskUnits="userSpaceOnUse" x="11" y="57" width="127" height="35">
<path d="M138 57H11V92H138V57Z" fill="white"/>
</mask>
<g mask="url(#mask0_375_8233)">
<path d="M28.2966 89.8124C36.8828 89.8124 43.8432 82.8588 43.8432 74.2812C43.8432 65.7036 36.8828 58.75 28.2966 58.75C19.7105 58.75 12.75 65.7036 12.75 74.2812C12.75 82.8588 19.7105 89.8124 28.2966 89.8124Z" fill="#1D1D1D"/>
<path d="M27.7422 92.02C28.1043 91.9533 28.4659 91.9553 28.8279 92.02H27.7422Z" fill="white"/>
<path d="M15.2422 74.522C15.2374 67.2386 21.1037 61.3113 28.3176 61.3105C35.5215 61.3097 41.3718 67.226 41.3734 74.5143C41.375 81.8075 35.5364 87.7161 28.3257 87.7177C21.0989 87.7193 15.247 81.8173 15.2422 74.522Z" fill="white"/>
<path d="M40.0652 69.548C40.0599 69.6681 39.9831 69.7067 39.9208 69.7552C39.0274 70.4469 38.134 71.1382 37.2402 71.8291C33.6755 74.5846 30.1108 77.3397 26.5464 80.0956C24.6313 81.5763 22.7175 83.0586 20.8024 84.5401C20.5501 84.735 20.5457 84.7387 20.2999 84.5316C20.0687 84.3367 19.8522 84.1235 19.6173 83.933C19.4882 83.8285 19.5035 83.752 19.5956 83.634C20.3997 82.6025 21.199 81.5673 22.0002 80.5334C23.3385 78.807 24.6764 77.0801 26.0151 75.3544C27.9941 72.8028 29.9748 70.252 31.9538 67.7003C32.9373 66.4324 33.9188 65.1629 34.9011 63.8946C34.9341 63.8519 34.9743 63.8137 35.0013 63.7677C35.0733 63.6444 35.1489 63.6509 35.2611 63.7262C35.7877 64.0773 36.2909 64.4594 36.7619 64.8826C38.0656 66.0536 39.0885 67.4387 39.8391 69.0292C39.9224 69.2062 39.9956 69.3881 40.0652 69.548Z" fill="#1D1D1D"/>
<path d="M28.2135 61.6293C29.1922 61.6618 30.0663 61.7237 30.9263 61.9157C31.1495 61.9654 31.154 61.976 31.0409 62.1741C29.7103 64.5085 28.3781 66.842 27.0474 69.1768C25.5869 71.7403 24.1279 74.3049 22.6682 76.8684C21.4856 78.9452 20.3025 81.022 19.1187 83.098C19.0057 83.2965 18.992 83.2986 18.8376 83.1301C18.5234 82.7867 18.2402 82.4184 17.9647 82.0429C17.8846 81.9338 17.9007 81.8313 17.9313 81.7174C18.2841 80.4043 18.6356 79.0908 18.9876 77.7778C19.6859 75.1708 20.3846 72.5638 21.0825 69.9568C21.7036 67.6371 22.3254 65.3178 22.9437 62.9977C22.9783 62.8687 23.039 62.7889 23.1625 62.734C24.4183 62.1782 25.7256 61.8242 27.0929 61.7062C27.4996 61.6712 27.9074 61.65 28.2135 61.6293Z" fill="#1D1D1D"/>
<path d="M41.0446 74.5779C41.0265 77.2472 40.2627 79.6796 38.7695 81.8801C38.6734 82.0217 38.5579 82.1084 38.3906 82.1527C34.9836 83.0568 31.5777 83.9654 28.1715 84.8736C26.5332 85.3102 24.8948 85.746 23.2577 86.1871C23.0992 86.2298 22.9648 86.2205 22.816 86.1456C22.2935 85.8827 21.7862 85.5951 21.2967 85.2736C21.1696 85.1902 21.1527 85.1377 21.2991 85.0539C23.0135 84.0753 24.7259 83.0939 26.4386 82.112C28.5762 80.8864 30.7133 79.6592 32.8513 78.4345C35.1231 77.1328 37.3962 75.8328 39.6685 74.5319C40.0591 74.3086 40.4473 74.0816 40.8399 73.8615C41.0173 73.7622 41.0402 73.7788 41.0442 73.9887C41.0478 74.1849 41.0446 74.3818 41.0446 74.5779Z" fill="#1D1D1D"/>
<path d="M19.1388 65.5703C19.1738 65.7717 17.3065 80.6259 17.2221 80.866C16.0588 78.7835 15.5025 76.574 15.5676 74.2258C15.6597 70.9047 16.8528 68.0272 19.1388 65.5703Z" fill="#1D1D1D"/>
<path d="M24.9141 86.9068C28.1462 86.5113 31.3251 86.1223 34.5294 85.7305C32.6405 87.2446 27.2327 87.9131 24.9141 86.9068Z" fill="#1D1D1D"/>
<path d="M74.0522 74.9792C74.0522 78.5128 74.0522 82.0465 74.0522 85.5792C74.0522 86.2099 73.8589 86.4055 73.2365 86.4065C66.2156 86.4065 59.1947 86.4065 52.1728 86.4065C51.5597 86.4065 51.3682 86.2062 51.3672 85.5689C51.3672 78.4867 51.3672 71.4036 51.3672 64.3214C51.3672 63.6758 51.5458 63.4941 52.182 63.4941C59.2029 63.4941 66.2239 63.4941 73.2457 63.4941C73.8754 63.4941 74.0513 63.6786 74.0513 64.3316C74.0513 67.8802 74.0513 71.4297 74.0513 74.9782L74.0522 74.9792Z" fill="white"/>
<path d="M62.754 64.2161C66.0706 64.2161 69.3863 64.2161 72.7029 64.2161C73.3178 64.2161 73.3334 64.2302 73.3334 64.833C73.3343 71.5671 73.3343 78.3011 73.3334 85.0352C73.3334 85.6568 73.3039 85.6839 72.6762 85.6839C66.0282 85.6839 59.3803 85.6839 52.7324 85.6839C52.1074 85.6839 52.0788 85.6568 52.0788 85.0305C52.0779 78.2965 52.0779 71.5624 52.0788 64.8283C52.0788 64.2292 52.0954 64.2152 52.713 64.2152C56.06 64.2143 59.407 64.2161 62.754 64.2161Z" fill="#1D1D1D"/>
<path d="M57.273 74.5882C57.273 72.2324 57.2812 69.8766 57.2657 67.5199C57.263 67.083 57.3893 66.9209 57.8318 66.9219C59.2912 66.9237 59.2912 66.9088 59.2912 68.4095C59.2912 72.2222 59.2912 76.0358 59.2912 79.8485C59.2912 80.5797 59.2949 80.5834 59.99 80.5834C61.8065 80.5844 63.6221 80.5946 65.4386 80.576C65.8666 80.5713 66.0302 80.7055 66.0174 81.1582C65.9838 82.398 66.1501 82.2499 64.9506 82.2527C62.5898 82.2583 60.229 82.2555 57.8673 82.2527C57.2975 82.2527 57.2739 82.2285 57.2739 81.6538C57.2721 79.298 57.2739 76.9422 57.2739 74.5854L57.273 74.5882Z" fill="white"/>
<path d="M117.271 86.4085C113.747 86.4085 110.223 86.4085 106.698 86.4085C106.013 86.4085 105.844 86.2425 105.844 85.5704C105.844 78.4969 105.844 71.4225 105.844 64.349C105.844 63.6797 106.025 63.4961 106.684 63.4961C113.748 63.4961 120.812 63.4961 127.876 63.4961C128.514 63.4961 128.707 63.6844 128.707 64.3118C128.707 71.4011 128.707 78.4904 128.707 85.5797C128.707 86.2295 128.531 86.4085 127.89 86.4085C124.35 86.4085 120.811 86.4085 117.271 86.4085Z" fill="white"/>
<path d="M117.364 64.2148C120.68 64.2148 123.996 64.2148 127.312 64.2148C127.987 64.2148 127.99 64.2167 127.99 64.8737C127.99 71.5914 127.99 78.3082 127.99 85.0259C127.99 85.6764 127.983 85.6839 127.354 85.6839C120.692 85.6839 114.029 85.6839 107.367 85.6839C106.74 85.6839 106.734 85.6782 106.734 85.0222C106.734 78.3044 106.734 71.5877 106.734 64.8699C106.734 64.2185 106.738 64.2148 107.37 64.2148C110.701 64.2148 114.033 64.2148 117.364 64.2148Z" fill="#1D1D1D"/>
<path d="M111.755 72.5218C111.755 70.6522 111.755 69.1218 111.755 67.5914C111.755 66.9317 111.758 66.9308 112.434 66.9289C112.726 66.9289 113.02 66.9447 113.311 66.9252C113.701 66.8992 113.824 67.0748 113.814 67.4474C113.794 68.1267 113.808 68.8078 113.808 69.4879C113.808 71.6056 113.789 73.7233 113.817 75.8409C113.831 76.8909 113.914 77.94 114.403 78.9092C115.095 80.2788 116.241 80.8782 117.719 80.8187C119.259 80.7564 120.426 80.0744 121.017 78.5654C121.373 77.6547 121.45 76.6995 121.456 75.7424C121.474 73.0217 121.462 70.301 121.463 67.5803C121.463 66.9391 121.473 66.9326 122.106 66.9289C122.398 66.928 122.693 66.9456 122.984 66.9252C123.382 66.8964 123.528 67.0525 123.523 67.4595C123.506 69.0364 123.518 70.6132 123.517 72.1892C123.515 73.6731 123.529 75.157 123.501 76.641C123.481 77.6733 123.232 78.662 122.762 79.5838C121.818 81.4329 120.204 82.2311 118.231 82.4002C117.2 82.4885 116.166 82.4346 115.176 82.0713C113.14 81.3251 112.177 79.738 111.873 77.6928C111.602 75.866 111.823 74.0188 111.755 72.5218Z" fill="white"/>
<path d="M90.0861 63.4941C93.5672 63.4941 97.0484 63.4941 100.529 63.4941C101.226 63.4941 101.38 63.6545 101.38 64.3751C101.38 71.4346 101.38 78.493 101.38 85.5525C101.38 86.2275 101.206 86.4055 100.548 86.4065C93.5396 86.4065 86.5313 86.4065 79.523 86.4065C78.8674 86.4065 78.6953 86.2275 78.6953 85.5487C78.6953 78.4744 78.6953 71.4001 78.6953 64.3248C78.6953 63.675 78.8702 63.495 79.5046 63.495C83.0317 63.495 86.5589 63.4941 90.0861 63.4941Z" fill="white"/>
<path d="M90.0356 85.6829C86.7042 85.6829 83.3729 85.6829 80.0414 85.6829C79.4091 85.6829 79.4062 85.6792 79.4062 85.0278C79.4062 78.3097 79.4062 71.5926 79.4062 64.8746C79.4062 64.2195 79.4109 64.2148 80.0387 64.2148C86.7015 64.2148 93.3642 64.2148 100.026 64.2148C100.656 64.2148 100.661 64.2213 100.662 64.8718C100.662 71.5898 100.662 78.3069 100.662 85.0249C100.662 85.682 100.659 85.6839 99.9837 85.6839C96.668 85.6839 93.3513 85.6829 90.0356 85.6829Z" fill="#1D1D1D"/>
<path d="M84.6012 74.737C84.6012 72.4197 84.6104 70.1023 84.5938 67.785C84.5911 67.3375 84.7336 67.1713 85.1861 67.1211C86.8801 66.9327 88.575 66.8175 90.2681 67.0571C91.5712 67.2409 92.7594 67.6977 93.5889 68.822C95.1302 70.91 94.4442 74.114 92.18 75.3693C90.6617 76.2104 89.0247 76.4137 87.3298 76.255C86.6833 76.1937 86.6355 76.2076 86.6345 76.8501C86.6327 78.4572 86.6217 80.0634 86.6419 81.6696C86.6474 82.1133 86.5049 82.2907 86.0625 82.2517C85.7434 82.2238 85.4188 82.2285 85.0987 82.2508C84.7134 82.2777 84.5929 82.1124 84.5966 81.7364C84.6104 80.1144 84.6021 78.4925 84.6021 76.8705C84.6021 76.1603 84.6021 75.4491 84.6021 74.7389L84.6012 74.737Z" fill="white"/>
<path d="M86.5576 71.4649C86.5576 70.6334 86.5631 69.8029 86.5548 68.9714C86.5521 68.683 86.6157 68.4812 86.9414 68.4548C88.0911 68.3606 89.2436 68.2503 90.3637 68.6443C91.4664 69.0327 92.151 69.8076 92.2525 71.0115C92.3595 72.286 92.0052 73.3796 90.8472 74.0555C89.9218 74.5957 88.8994 74.7409 87.8623 74.6579C86.5567 74.5542 86.5585 74.5203 86.5585 73.159C86.5585 72.5943 86.5576 72.0296 86.5576 71.4649Z" fill="#1D1D1D"/>
</g>
</svg>
