<svg width="150" height="150" viewBox="0 0 150 150" fill="none" xmlns="http://www.w3.org/2000/svg">
<g clip-path="url(#clip0_375_8210)">
<mask id="mask0_375_8210" style="mask-type:luminance" maskUnits="userSpaceOnUse" x="0" y="0" width="150" height="150">
<path d="M150 0H0V150H150V0Z" fill="white"/>
</mask>
<g mask="url(#mask0_375_8210)">
<path d="M49.25 84.4917V65.1289H55.3646V72.8995H57.4028V65.1289H63.39V84.4917H57.4028V78.5045C57.4028 78.5045 57.4028 77.995 56.3837 77.995C55.3646 77.995 55.1098 78.5045 55.1098 78.5045V84.4917H49.25Z" fill="white"/>
<path d="M63.7812 71.1161V65.1289H77.1569V71.1161H73.4626V84.4917H67.3481V71.1161H63.7812Z" fill="white"/>
<path d="M81.8594 84.4917V65.1289H89.1204L91.0822 74.046L93.0694 65.1289H100.203V84.4917H94.7255V75.702L92.8147 84.4917H88.7383L86.5727 75.702V84.4917H81.8594Z" fill="white"/>
<path d="M106.197 70.0957C103.656 70.0957 102.275 71.6258 101.613 72.7166C101.204 73.3926 101.102 74.192 101.102 74.9826V80.0237C101.102 80.7894 101.198 81.5644 101.59 82.2219C102.265 83.3535 103.736 85 106.579 85C110.097 85 111.01 82.6465 111.229 81.7629C111.282 81.5455 111.293 81.3209 111.293 81.0969V79.2675H108.872C108.028 79.2675 107.344 79.9519 107.344 80.7962C107.344 80.7962 107.216 81.1784 106.579 81.1784C105.942 81.1784 105.815 80.7962 105.815 80.7962V79.9492C105.815 79.0803 106.519 78.3758 107.388 78.3758H111.293V74.744C111.293 74.1116 111.207 73.4749 110.9 72.9221C110.293 71.8301 108.903 70.0957 106.197 70.0957Z" fill="white"/>
<path d="M117.921 70.7859V65.1289H122.507V84.4917H118.812V83.4726C118.812 83.4726 118.812 85.0013 116.01 85.0013C115.807 85.0013 115.613 84.9825 115.428 84.9477C112.188 84.3373 112.188 79.8197 112.188 76.5035V76.4258C112.188 74.6718 112.117 72.7442 113.268 71.4209C113.787 70.8253 114.541 70.3517 115.628 70.3517C117.226 70.3517 117.763 70.5791 117.921 70.7859Z" fill="white"/>
<path d="M123.648 84.4892V70.4766H128.234V84.4892H123.648Z" fill="white"/>
<path d="M128.234 69.5874H123.648V65.1289H128.234V69.5874Z" fill="white"/>
<path d="M133.459 75.9558H129.383L129.458 75.1659C129.574 73.9421 130.084 72.789 130.911 71.8794L131.11 71.7262C132.055 70.9995 133.213 70.6055 134.405 70.6055H135.13C136.099 70.6055 137.029 70.9904 137.714 71.6756C138.741 72.7033 139.319 74.0972 139.319 75.5506V80.5312C139.319 80.9783 139.642 81.3599 140.083 81.4334V84.4907H138.792C137.586 84.4907 136.436 83.9819 135.625 83.0895C135.625 83.0895 135.497 83.8538 134.605 84.4907C133.714 85.1277 131.293 85.0003 130.529 84.4907C129.447 83.7691 129.085 82.4011 129.004 81.1027L129 81.0513C129.082 79.9065 129.59 78.8215 130.509 78.1331C130.885 77.8508 131.294 77.5688 131.676 77.357C132.822 76.7201 134.605 76.2106 134.605 76.2106V74.4271C134.605 74.4271 134.605 74.045 134.096 74.045C133.586 74.045 133.459 74.4271 133.459 74.4271V75.9558Z" fill="white"/>
<path d="M134.604 81.6873V78.8848H134.515C134.092 78.8848 133.694 79.0895 133.448 79.4343C133.289 79.6569 133.203 79.9236 133.203 80.1971V81.0751C133.203 81.4465 133.424 81.7822 133.766 81.9285C133.969 82.0157 134.204 81.9876 134.381 81.8548L134.604 81.6873Z" fill="black"/>
<path d="M116.516 80.1584V74.5534C116.516 74.5534 116.643 73.7891 117.28 73.7891C117.917 73.7891 117.917 74.5534 117.917 74.5534V80.1584C117.917 80.1584 117.917 80.9228 117.28 80.9228C116.643 80.9228 116.516 80.1584 116.516 80.1584Z" fill="black"/>
<path d="M106.499 73.9405C106.447 73.9262 106.388 73.918 106.323 73.918C106.259 73.918 106.2 73.9262 106.148 73.9405C105.698 74.0621 105.688 74.6628 105.688 75.1281C105.688 75.5935 105.698 76.1942 106.148 76.3158C106.2 76.3301 106.259 76.3383 106.323 76.3383C106.388 76.3383 106.447 76.3301 106.499 76.3158C106.949 76.1942 106.96 75.5935 106.96 75.1281C106.96 74.6628 106.949 74.0621 106.499 73.9405Z" fill="black"/>
<path d="M28.6094 84.3629V65H37.3992V84.3629H28.6094Z" fill="white"/>
<path d="M38.2969 84.3629V65H47.0866V84.3629H38.2969Z" fill="white"/>
<path d="M9 74.1719V65H27.5985V74.1719H9Z" fill="white"/>
<path d="M9 84.3633V75.1914H27.5985V84.3633H9Z" fill="white"/>
</g>
</g>
<defs>
<clipPath id="clip0_375_8210">
<rect width="150" height="150" fill="white"/>
</clipPath>
</defs>
</svg>
