<svg width="150" height="150" viewBox="0 0 150 150" fill="none" xmlns="http://www.w3.org/2000/svg">
<mask id="mask0_375_8171" style="mask-type:luminance" maskUnits="userSpaceOnUse" x="9" y="52" width="131" height="45">
<path d="M140 52H9V97H140V52Z" fill="white"/>
</mask>
<g mask="url(#mask0_375_8171)">
<path d="M128.695 88.3435C128.623 88.3435 128.554 88.3148 128.503 88.264C128.452 88.2131 128.423 88.1441 128.423 88.0722V52.2384C128.423 52.1981 128.413 52.1584 128.394 52.1232C128.374 52.0879 128.346 52.0581 128.312 52.0366C128.278 52.0151 128.239 52.0027 128.199 52.0004C128.159 51.9981 128.119 52.0061 128.082 52.0235C128.082 52.0235 125.604 53.7385 122.929 55.9671C121.474 57.159 120.089 58.4317 118.778 59.7797C118.778 59.7797 118.422 60.1042 118.422 60.3468V87.487C118.422 90.4921 119.191 92.8166 120.708 94.3964C122.225 95.9762 125.241 96.774 128.505 96.774H132.418C132.462 96.7741 132.504 96.7657 132.544 96.7493C132.584 96.7329 132.62 96.7088 132.651 96.6783C132.681 96.6478 132.706 96.6116 132.722 96.5717C132.739 96.5318 132.747 96.489 132.747 96.4459V88.6731C132.747 88.5859 132.713 88.5022 132.651 88.4406C132.589 88.3789 132.506 88.3445 132.418 88.3445L128.695 88.3435Z" fill="white"/>
<path d="M116.113 61.6585C116.07 61.6014 116.015 61.5549 115.952 61.5227C115.888 61.4904 115.818 61.473 115.747 61.4724C112.689 61.4586 109.632 61.4471 106.574 61.4371C106.478 61.4364 106.385 61.4671 106.308 61.5247C106.232 61.5822 106.176 61.663 106.151 61.7551C104.849 66.3926 103.511 71.0337 102.137 75.678C101.128 79.6246 100.101 83.5729 99.0562 87.5226C98.0616 83.5801 97.0495 79.6355 96.0205 75.6896C94.582 71.0339 93.1308 66.3765 91.6662 61.7164C91.6375 61.6248 91.5803 61.5446 91.5032 61.4874C91.426 61.4303 91.3329 61.3991 91.2369 61.3984C89.7252 67.0262 88.1826 72.6556 86.6094 78.2875C88.6058 84.3742 90.5756 90.4585 92.5188 96.5393C92.5469 96.6291 92.603 96.7071 92.6788 96.7628C92.7546 96.8184 92.8464 96.8484 92.9405 96.8483C96.786 96.8411 100.631 96.8316 104.476 96.8196C104.571 96.8188 104.663 96.7884 104.74 96.7331C104.817 96.6777 104.875 96.5997 104.906 96.5102C108.843 85.0016 112.675 73.5145 116.187 62.0626C116.207 61.9942 116.211 61.922 116.198 61.8518C116.186 61.7816 116.156 61.7153 116.113 61.6585Z" fill="white"/>
<path d="M91.2389 61.3967H90.5917H90.5886C87.6158 61.3916 84.643 61.388 81.6698 61.3867H81.6093C81.5089 61.3866 81.4113 61.4209 81.3325 61.4833C81.2538 61.5457 81.1984 61.6325 81.1755 61.7303C80.072 66.3839 78.9588 71.0388 77.8363 75.6944C77.1392 78.795 76.4421 81.8957 75.7443 84.997C74.9095 81.8923 74.0748 78.7875 73.2406 75.6829C71.9028 71.0262 70.5751 66.3707 69.2572 61.7157C69.2309 61.6225 69.1744 61.5403 69.0971 61.4818C69.0198 61.4233 68.9258 61.3912 68.8288 61.3912C65.8793 61.3936 62.93 61.3979 59.9804 61.4038C59.8825 61.4042 59.7873 61.4364 59.7091 61.4954C59.631 61.5543 59.5737 61.6368 59.5466 61.7308C58.191 66.3834 56.8475 71.0339 55.5154 75.6824C54.6939 78.7795 53.8823 81.8757 53.0811 84.9708C52.3716 81.8823 51.6733 78.7943 50.9855 75.7075C49.8778 71.0622 48.8019 66.4195 47.7585 61.7786C47.737 61.6813 47.683 61.5942 47.605 61.5321C47.5271 61.47 47.4304 61.4367 47.3307 61.4375C44.2043 61.4474 41.0798 61.4591 37.9575 61.4732C37.8877 61.4737 37.8191 61.49 37.7566 61.521C37.6941 61.552 37.6391 61.5971 37.5965 61.6523C37.5538 61.7068 37.5244 61.7703 37.51 61.838C37.4956 61.9057 37.4966 61.9757 37.5135 62.0428C40.4788 73.4967 43.7538 84.9814 47.1557 96.4853C47.1835 96.5797 47.2411 96.6626 47.3197 96.7218C47.3983 96.781 47.494 96.8132 47.5924 96.8139C50.9127 96.8249 54.2334 96.8345 57.5546 96.8421C57.6514 96.8424 57.7454 96.8109 57.8224 96.7525C57.8994 96.6942 57.9551 96.6121 57.9809 96.5191C59.328 91.6535 60.7034 86.7852 62.1073 81.9149C62.7845 79.3447 63.4677 76.8501 64.1536 74.279C64.8478 76.8471 65.5451 79.3397 66.2486 81.9099C67.6572 86.7843 69.0722 91.6597 70.4943 96.5362C70.5213 96.6296 70.578 96.712 70.6558 96.7707C70.7335 96.8293 70.8278 96.8613 70.9251 96.8617C74.3116 96.8641 77.6978 96.8641 81.084 96.8617C81.1822 96.8611 81.2777 96.8282 81.3557 96.7686C81.4337 96.7091 81.4903 96.6257 81.5168 96.5311C83.2089 90.431 84.901 84.3318 86.5937 78.233L86.6119 78.2874C88.1772 72.6555 89.7193 67.026 91.2389 61.3982V61.3967Z" fill="white"/>
<path d="M92.5479 64.666L87.49 81.1164L86.5625 78.2915L91.2484 61.4375C91.3447 61.4493 91.4351 61.4886 91.5091 61.5513C91.5831 61.6139 91.6372 61.6968 91.6646 61.7898L92.5479 64.666Z" fill="white"/>
<path d="M37.0086 85.1836C36.854 81.588 35.514 77.5958 26.9644 74.8515C26.5088 74.7011 26.0587 74.5584 25.6207 74.4188C22.575 73.4506 19.6207 72.6731 19.5548 70.8506C19.4929 69.1698 21.3502 68.2134 23.8512 68.1259C26.0002 68.0465 28.2794 68.8237 30.986 70.5678C31.104 70.6438 31.247 70.6707 31.3846 70.6433C31.5222 70.6159 31.644 70.5363 31.7238 70.4209C33.0943 68.4691 34.4767 66.5008 35.8712 64.5159C35.9143 64.4561 35.945 64.3885 35.9618 64.3167C35.9786 64.2449 35.9815 64.17 35.9694 64.0973C35.9584 64.0273 35.9328 63.9605 35.8944 63.901C35.8559 63.8416 35.8052 63.7909 35.7459 63.7521C32.0915 61.2383 27.7297 59.9568 23.2961 60.0939C15.0062 60.3515 9.11302 64.7545 9.41192 71.5138C9.60775 76.2059 13.4695 79.3239 19.8572 81.4911C20.2597 81.6308 20.6622 81.7683 21.0585 81.9033C24.2171 82.9766 27.0236 83.9918 27.0947 85.9122C27.1623 87.7342 25.613 88.8421 22.7827 88.9369C22.6673 88.9405 22.552 88.9429 22.4345 88.9429C19.8036 88.9429 17.1106 87.9737 14.0118 85.874C13.9526 85.8341 13.886 85.8064 13.816 85.7924C13.7461 85.7784 13.6741 85.778 13.6041 85.7919C13.5342 85.8059 13.4676 85.8337 13.4084 85.8735C13.3491 85.9132 13.2983 85.9644 13.2589 86.0239C11.8864 88.0719 10.5004 90.1386 9.1014 92.2237C9.01889 92.3383 8.98479 92.4807 9.00629 92.6203C9.02778 92.7598 9.10348 92.885 9.21665 92.9695C13.0566 95.5568 17.5726 96.9576 22.203 96.997C22.3931 96.997 22.5821 96.9932 22.7702 96.9865C31.7975 96.7159 37.3189 92.2768 37.0086 85.1836Z" fill="white"/>
<path d="M138.608 90.8513L138.321 90.1997H137.941V90.8513H137.625V89.1289H138.351C138.426 89.1197 138.503 89.1268 138.575 89.1495C138.647 89.1723 138.714 89.2101 138.77 89.2607C138.827 89.3113 138.872 89.3735 138.903 89.4429C138.933 89.5123 138.948 89.5875 138.948 89.6633C138.952 89.7667 138.924 89.869 138.868 89.9556C138.811 90.0423 138.729 90.1092 138.632 90.1469L138.948 90.8508L138.608 90.8513ZM138.351 89.4036H137.938V89.9189H138.356C138.533 89.9189 138.636 89.8267 138.636 89.6613C138.635 89.6254 138.627 89.5903 138.612 89.5576C138.597 89.5249 138.576 89.4957 138.549 89.4716C138.522 89.4475 138.491 89.4288 138.457 89.4172C138.423 89.4057 138.387 89.4008 138.351 89.4036Z" fill="white"/>
<path d="M138.237 91.7583C137.887 91.7583 137.545 91.6547 137.255 91.4605C136.964 91.2662 136.737 90.99 136.603 90.6669C136.47 90.3439 136.435 89.9884 136.503 89.6454C136.571 89.3025 136.74 88.9874 136.987 88.7402C137.234 88.493 137.549 88.3248 137.892 88.2566C138.235 88.1885 138.591 88.2234 138.914 88.3573C139.237 88.4912 139.513 88.7176 139.708 89.0084C139.902 89.2992 140.005 89.6415 140.005 89.9911C140.005 90.4598 139.818 90.9087 139.487 91.2401C139.155 91.5714 138.706 91.7579 138.237 91.7583ZM138.237 88.5455C137.952 88.5455 137.673 88.6301 137.436 88.7885C137.199 88.9469 137.014 89.1722 136.904 89.4356C136.795 89.6991 136.766 89.9891 136.821 90.2689C136.877 90.5487 137.014 90.8057 137.215 91.0076C137.417 91.2095 137.674 91.3471 137.954 91.4031C138.233 91.4591 138.523 91.4308 138.787 91.3221C139.051 91.2134 139.276 91.0291 139.435 90.7922C139.594 90.5554 139.679 90.2769 139.68 89.9916C139.68 89.6088 139.528 89.2417 139.257 88.9707C138.987 88.6997 138.62 88.5466 138.237 88.5455Z" fill="white"/>
</g>
</svg>
