<svg width="150" height="150" viewBox="0 0 150 150" fill="none" xmlns="http://www.w3.org/2000/svg">
<mask id="mask0_375_8186" style="mask-type:luminance" maskUnits="userSpaceOnUse" x="42" y="35" width="65" height="80">
<path d="M107 35H42V115H107V35Z" fill="white"/>
</mask>
<g mask="url(#mask0_375_8186)">
<path d="M75.4139 97.5236C75.4025 97.2912 75.3843 97.0966 75.3843 96.902C75.3831 78.3056 75.3813 59.7086 75.3849 41.1121C75.3855 37.9957 77.4815 35.5609 80.5819 35.0571C80.9177 35.0024 81.265 35.0024 81.6069 35.0018C89.6277 35 97.6486 35 105.67 35C105.849 35 106.03 35 106.197 35C106.333 35.4558 106.371 64.7535 106.236 65.5997H90.4313V97.5236H75.4139Z" fill="white"/>
<path d="M57.7488 65.609H42.1392C42.0902 65.5597 42.075 65.5459 42.0617 65.5309C42.0484 65.5165 42.026 65.5009 42.0254 65.4858C42.0157 55.4687 42.0073 45.451 42 35.4339C42 35.3168 42.0157 35.2003 42.0266 35.0501C42.1815 35.0321 42.3152 35.0033 42.4496 35.0039C50.4299 35.0303 58.4096 35.0699 66.3899 35.0813C69.6815 35.0862 72.1581 37.4086 72.6361 40.3497C72.6839 40.6439 72.7057 40.946 72.7063 41.2445C72.7093 59.7809 72.7093 78.3167 72.7093 96.8531C72.7093 97.0308 72.7093 97.2092 72.7093 97.4699C67.718 97.5275 62.7704 97.5095 57.7488 97.5624V65.609Z" fill="white"/>
<path d="M82.1471 114.891C82.037 114.937 82.0189 114.951 82.0007 114.951C81.5185 114.951 80.983 115.081 80.5679 114.915C80.1141 114.733 80.1328 114.108 79.9683 113.672C79.2343 111.727 78.527 109.773 77.8094 107.822C77.7567 107.679 77.698 107.537 77.58 107.401C77.4881 109.902 77.5256 112.398 77.4984 114.933H75.625V104.268H78.2934C79.2204 106.869 80.1625 109.511 81.104 112.153C81.1457 112.159 81.1881 112.164 81.2298 112.169C81.7581 110.874 82.1967 109.543 82.6802 108.23C83.163 106.917 83.6374 105.601 84.1263 104.258H86.9351V114.937H84.942V107.335C84.8966 107.326 84.8512 107.318 84.8064 107.309C83.9176 109.843 83.0287 112.377 82.1477 114.89L82.1471 114.891Z" fill="white"/>
<path d="M57.2577 114.939H55.2223C55.218 114.17 55.212 113.42 55.2102 112.67C55.2084 111.931 55.2102 111.193 55.2102 110.464C54.7618 110.336 52.2562 110.308 51.4127 110.423V114.923H49.3966C49.2696 114.483 49.246 104.903 49.3748 104.257H51.3964V108.542H55.1902V104.291C55.9096 104.161 56.5631 104.253 57.2583 104.221L57.2577 114.939Z" fill="white"/>
<path d="M67.0625 104.217C68.6478 104.274 70.1992 104.071 71.7277 104.403C73.8599 104.865 74.635 106.857 74.0893 108.663C73.7123 109.911 72.8059 110.598 71.4741 110.924C72.4187 112.264 73.3904 113.539 74.3966 114.964C73.5193 114.964 72.7835 114.985 72.0508 114.947C71.9019 114.939 71.7325 114.729 71.6278 114.575C70.9181 113.533 70.2234 112.481 69.5216 111.434C69.4157 111.276 69.2947 111.127 69.0901 111.004V114.845C68.6103 115.002 67.7203 115.02 67.0625 114.896V104.217ZM69.1029 106.215V109.275C69.766 109.243 70.3868 109.246 70.9992 109.174C71.7827 109.081 72.1942 108.618 72.2432 107.873C72.297 107.054 71.9788 106.555 71.2115 106.337C70.5302 106.142 69.8314 106.142 69.1029 106.215Z" fill="white"/>
<path d="M96.4748 114.978C96.0289 113.987 95.6283 113.097 95.2223 112.193H91.3976C91.135 112.804 90.8718 113.446 90.585 114.078C90.107 115.133 90.4337 114.955 89.1982 114.975C88.8007 114.981 88.4024 114.976 87.9062 114.976C89.4692 111.343 90.991 107.807 92.5182 104.256H94.0249C94.0823 104.358 94.1568 104.473 94.213 104.595C95.4159 107.211 96.6115 109.831 97.8241 112.443C97.9669 112.751 97.9802 112.975 97.7551 113.253C97.3286 113.781 96.9437 114.341 96.4742 114.979L96.4748 114.978ZM94.4277 110.152C94.032 109.151 93.6715 108.238 93.3103 107.325C93.2691 107.328 93.2286 107.332 93.1874 107.335C92.8595 108.254 92.5309 109.174 92.1818 110.152H94.4277Z" fill="white"/>
<path d="M100.817 109.599C99.6112 107.845 98.4029 106.087 97.125 104.229C97.9122 104.229 98.5705 104.206 99.2252 104.245C99.3801 104.254 99.5598 104.44 99.6651 104.589C100.312 105.505 100.94 106.435 101.576 107.359C101.687 107.52 101.807 107.677 101.953 107.878C102.078 107.731 102.185 107.621 102.273 107.496C102.958 106.533 103.65 105.574 104.313 104.597C104.506 104.313 104.72 104.205 105.056 104.218C105.658 104.24 106.262 104.224 106.982 104.224C106.564 104.908 106.13 105.471 105.726 106.053C105.304 106.662 104.872 107.265 104.445 107.871C104.032 108.458 103.619 109.046 103.194 109.652C104.452 111.399 105.689 113.117 107 114.939C106.59 114.953 106.283 114.977 105.977 114.972C105.516 114.965 104.99 115.069 104.615 114.881C104.263 114.706 104.066 114.217 103.812 113.86C103.324 113.174 102.845 112.482 102.359 111.795C102.247 111.636 102.124 111.484 101.973 111.287C101.848 111.445 101.746 111.559 101.659 111.685C100.987 112.657 100.312 113.627 99.6518 114.607C99.4787 114.864 99.2857 114.995 98.9608 114.981C98.4005 114.957 97.8384 114.974 97.3029 114.974C97.2696 114.908 97.2587 114.893 97.2533 114.875C97.2478 114.856 97.2406 114.834 97.2466 114.817C97.2599 114.78 97.2763 114.742 97.2987 114.71C98.4574 113.052 99.6173 111.395 100.777 109.737C100.788 109.722 100.788 109.7 100.817 109.599Z" fill="white"/>
<path d="M59.3438 104.254H65.2723V106.167H61.3188C61.2897 107.027 61.2933 107.83 61.3188 108.688H65.049C65.0878 109.323 65.0865 109.906 65.0442 110.552H61.3266C61.2776 111.353 61.3091 112.098 61.3073 112.927C62.6039 112.937 63.8588 112.947 65.1446 112.956V114.854C64.7174 115.001 60.0946 115.039 59.3438 114.9V104.256V104.254Z" fill="white"/>
<path d="M42.2031 104.263H48.3513V106.162H46.3364V114.938H44.2846V106.204H42.2031V104.263Z" fill="white"/>
</g>
</svg>
